<svg id="Group_2" data-name="Group 2" xmlns="http://www.w3.org/2000/svg" xmlns:xlink="http://www.w3.org/1999/xlink" width="189.075" height="60" viewBox="0 0 189.075 60">
  <defs>
    <clipPath id="clip-path">
      <rect id="Rectangle_2" data-name="Rectangle 2" width="189.075" height="60" fill="none"/>
    </clipPath>
  </defs>
  <g id="Group_1" data-name="Group 1" clip-path="url(#clip-path)">
    <path id="Path_1" data-name="Path 1" d="M27.319,183.288l.884-4.678H27.46l.2-1.061H28.4l.059-.295a4.574,4.574,0,0,1,.318-1.066,2.375,2.375,0,0,1,.637-.866,2.1,2.1,0,0,1,.713-.4,2.533,2.533,0,0,1,.8-.13,2.429,2.429,0,0,1,.518.047,1.48,1.48,0,0,1,.33.106l-.259,1.084a1.43,1.43,0,0,0-.554-.094.894.894,0,0,0-.766.395,2.256,2.256,0,0,0-.377.949l-.047.271h1.19l-.2,1.061H29.57l-.884,4.678Z" transform="translate(-19.654 -125.751)" fill="#a81833"/>
    <path id="Path_2" data-name="Path 2" d="M42.265,184.158a2.512,2.512,0,0,1,1.019.194,2.153,2.153,0,0,1,.736.518,2.206,2.206,0,0,1,.448.76,2.717,2.717,0,0,1,.153.907,3.964,3.964,0,0,1-.242,1.385,3.555,3.555,0,0,1-.683,1.149,3.327,3.327,0,0,1-1.054.79,3.064,3.064,0,0,1-1.343.295,2.583,2.583,0,0,1-.978-.177,2.063,2.063,0,0,1-.736-.495,2.255,2.255,0,0,1-.465-.748,2.629,2.629,0,0,1-.165-.949,4.014,4.014,0,0,1,.242-1.39,3.6,3.6,0,0,1,.678-1.155,3.262,3.262,0,0,1,1.049-.789,3.058,3.058,0,0,1,1.343-.295m-.165,1.061a1.182,1.182,0,0,0-.736.247,2.113,2.113,0,0,0-.542.619,3.232,3.232,0,0,0-.336.819,3.337,3.337,0,0,0-.118.848,1.518,1.518,0,0,0,.295.972.994.994,0,0,0,.825.371,1.117,1.117,0,0,0,.7-.241,2.206,2.206,0,0,0,.536-.613,3.25,3.25,0,0,0,.348-.825,3.331,3.331,0,0,0,.123-.878,2.012,2.012,0,0,0-.053-.454,1.276,1.276,0,0,0-.183-.424,1.04,1.04,0,0,0-.336-.318,1,1,0,0,0-.524-.123" transform="translate(-28.024 -132.489)" fill="#a81833"/>
    <path id="Path_3" data-name="Path 3" d="M60.037,190.026l.672-3.535q.117-.613.176-1.214t.118-.99h1.19q-.024.295-.053.6t-.076.619H62.1a2.942,2.942,0,0,1,.748-.966,1.6,1.6,0,0,1,1.054-.377q.071,0,.147.006c.051,0,.1.01.147.018l-.271,1.343c-.039-.008-.081-.014-.124-.018s-.088-.006-.135-.006a1.289,1.289,0,0,0-.666.177,1.847,1.847,0,0,0-.53.477,2.922,2.922,0,0,0-.389.7,4.461,4.461,0,0,0-.242.86l-.436,2.31Z" transform="translate(-43.193 -132.489)" fill="#a81833"/>
    <path id="Path_4" data-name="Path 4" d="M79.86,183.621l1.579-8.367h1.379l-.672,3.488h.024a2.99,2.99,0,0,1,.843-.719,2.144,2.144,0,0,1,1.078-.271,1.659,1.659,0,0,1,.56.094,1.259,1.259,0,0,1,.46.283,1.308,1.308,0,0,1,.306.483,1.919,1.919,0,0,1,.112.683q0,.224-.024.5a4.607,4.607,0,0,1-.071.513l-.636,3.311H83.431l.612-3.217c.016-.11.031-.228.047-.354a3.23,3.23,0,0,0,.024-.4.908.908,0,0,0-.165-.554.643.643,0,0,0-.554-.224,1.055,1.055,0,0,0-.507.141,1.709,1.709,0,0,0-.483.407,2.928,2.928,0,0,0-.4.636,3.266,3.266,0,0,0-.26.831l-.519,2.734Z" transform="translate(-57.454 -126.083)" fill="#a81833"/>
    <path id="Path_5" data-name="Path 5" d="M105.558,184.158a2.512,2.512,0,0,1,1.019.194,2.153,2.153,0,0,1,.736.518,2.206,2.206,0,0,1,.448.76,2.717,2.717,0,0,1,.153.907,3.964,3.964,0,0,1-.242,1.385,3.555,3.555,0,0,1-.683,1.149,3.327,3.327,0,0,1-1.054.79,3.064,3.064,0,0,1-1.343.295,2.583,2.583,0,0,1-.978-.177,2.063,2.063,0,0,1-.736-.495,2.255,2.255,0,0,1-.465-.748,2.629,2.629,0,0,1-.165-.949,4.014,4.014,0,0,1,.242-1.39,3.6,3.6,0,0,1,.678-1.155,3.262,3.262,0,0,1,1.049-.789,3.058,3.058,0,0,1,1.343-.295m-.165,1.061a1.182,1.182,0,0,0-.736.247,2.113,2.113,0,0,0-.542.619,3.231,3.231,0,0,0-.336.819,3.336,3.336,0,0,0-.118.848,1.518,1.518,0,0,0,.295.972.994.994,0,0,0,.825.371,1.117,1.117,0,0,0,.7-.241,2.207,2.207,0,0,0,.536-.613,3.25,3.25,0,0,0,.348-.825,3.331,3.331,0,0,0,.123-.878,2.012,2.012,0,0,0-.053-.454,1.276,1.276,0,0,0-.183-.424,1.04,1.04,0,0,0-.336-.318,1.006,1.006,0,0,0-.524-.123" transform="translate(-73.559 -132.489)" fill="#a81833"/>
    <path id="Path_6" data-name="Path 6" d="M123.33,190.026l.731-3.959q.094-.518.165-.96t.118-.819h1.19l-.118,1h.012a2.794,2.794,0,0,1,.919-.854,2.2,2.2,0,0,1,1.072-.277,1.275,1.275,0,0,1,1,.359,1.352,1.352,0,0,1,.359.819,2.361,2.361,0,0,1,2.027-1.178,1.4,1.4,0,0,1,1,.383,1.505,1.505,0,0,1,.407,1.149,4.518,4.518,0,0,1-.029.465q-.029.277-.065.513l-.636,3.358h-1.332l.6-3.205c.016-.118.033-.239.053-.365a2.364,2.364,0,0,0,.029-.365.97.97,0,0,0-.165-.589.63.63,0,0,0-.542-.224.909.909,0,0,0-.471.141,1.71,1.71,0,0,0-.448.407,2.942,2.942,0,0,0-.377.63,3.506,3.506,0,0,0-.247.825l-.518,2.746h-1.32l.613-3.252a3.429,3.429,0,0,0,.071-.672,1.183,1.183,0,0,0-.136-.577.568.568,0,0,0-.548-.247.919.919,0,0,0-.483.153,1.864,1.864,0,0,0-.465.424,2.873,2.873,0,0,0-.383.642,3.642,3.642,0,0,0-.248.807l-.495,2.722Z" transform="translate(-88.728 -132.489)" fill="#a81833"/>
    <path id="Path_7" data-name="Path 7" d="M161.4,189.7a3.647,3.647,0,0,1-.96.336,5.226,5.226,0,0,1-1.066.112,2.887,2.887,0,0,1-1.043-.171,1.914,1.914,0,0,1-.731-.483,2.049,2.049,0,0,1-.436-.748,3,3,0,0,1-.147-.966,3.857,3.857,0,0,1,.23-1.3,3.793,3.793,0,0,1,.654-1.161,3.432,3.432,0,0,1,1.025-.837,2.784,2.784,0,0,1,1.343-.324,1.95,1.95,0,0,1,1.35.448,1.64,1.64,0,0,1,.224,2.092,1.927,1.927,0,0,1-.772.6,4.167,4.167,0,0,1-1.19.312,9.866,9.866,0,0,1-1.52.065,1.306,1.306,0,0,0,.018.4,1.233,1.233,0,0,0,.136.412,1.248,1.248,0,0,0,1.178.589,3.367,3.367,0,0,0,.884-.106,3.277,3.277,0,0,0,.7-.271Zm-.577-3.912a.533.533,0,0,0-.2-.442.828.828,0,0,0-.53-.159,1.316,1.316,0,0,0-.584.13,1.689,1.689,0,0,0-.471.342,2,2,0,0,0-.342.471,2.134,2.134,0,0,0-.194.518,8.1,8.1,0,0,0,.96-.029,3.65,3.65,0,0,0,.731-.135,1.088,1.088,0,0,0,.465-.265.594.594,0,0,0,.165-.43" transform="translate(-112.961 -132.489)" fill="#a81833"/>
    <path id="Path_8" data-name="Path 8" d="M186.767,184.377q-.13-.153-.242-.306c-.075-.1-.155-.208-.242-.318a3.5,3.5,0,0,1-.96.554,3.408,3.408,0,0,1-1.22.2,2.95,2.95,0,0,1-.96-.147,2.075,2.075,0,0,1-.731-.418,1.809,1.809,0,0,1-.46-.648,2.132,2.132,0,0,1-.159-.837,2.174,2.174,0,0,1,.159-.842,2.455,2.455,0,0,1,.43-.69,3.46,3.46,0,0,1,.618-.548,4.953,4.953,0,0,1,.725-.418l.012-.035a3.843,3.843,0,0,1-.318-.683,2.156,2.156,0,0,1-.118-.707,2.212,2.212,0,0,1,.171-.866,2.139,2.139,0,0,1,.477-.707,2.286,2.286,0,0,1,.731-.477,2.4,2.4,0,0,1,.931-.176,2.237,2.237,0,0,1,.766.123,1.638,1.638,0,0,1,.578.348,1.57,1.57,0,0,1,.365.53,1.712,1.712,0,0,1,.13.672,1.788,1.788,0,0,1-.5,1.249,4.707,4.707,0,0,1-1.5,1v.035q.271.448.613.949t.612.878a4.93,4.93,0,0,0,.648-1,9.307,9.307,0,0,0,.483-1.184h1.273a10.675,10.675,0,0,1-.736,1.691,5.912,5.912,0,0,1-1.043,1.373q.235.318.506.672t.578.73Zm-2.286-.919a1.681,1.681,0,0,0,.7-.141,1.844,1.844,0,0,0,.548-.377q-.295-.412-.713-1t-.807-1.225a4.1,4.1,0,0,0-.342.247,2.2,2.2,0,0,0-.33.33,1.75,1.75,0,0,0-.253.424,1.313,1.313,0,0,0-.1.519,1.229,1.229,0,0,0,.33.872,1.259,1.259,0,0,0,.967.354m1.013-6.234a.838.838,0,0,0-.672.33,1.274,1.274,0,0,0-.271.837,1.97,1.97,0,0,0,.353,1.108,3.214,3.214,0,0,0,.937-.636,1.185,1.185,0,0,0,.36-.86.924.924,0,0,0-.165-.542.615.615,0,0,0-.542-.236" transform="translate(-130.788 -126.839)" fill="#a81833"/>
    <path id="Path_9" data-name="Path 9" d="M217.281,175.253l-.719,3.477h.024a2.355,2.355,0,0,1,.831-.725,2.255,2.255,0,0,1,1.054-.254,1.7,1.7,0,0,1,.79.171,1.511,1.511,0,0,1,.536.453,1.982,1.982,0,0,1,.307.648,2.848,2.848,0,0,1,.1.754,4.378,4.378,0,0,1-.236,1.39,4.084,4.084,0,0,1-.695,1.279,3.629,3.629,0,0,1-1.155.937,3.426,3.426,0,0,1-1.614.365,2.3,2.3,0,0,1-1.414-.383,1.334,1.334,0,0,1-.5-1.161,4.337,4.337,0,0,1,.029-.5q.029-.253.077-.489l1.2-5.963Zm-1.214,6.033q-.024.153-.047.318a1.833,1.833,0,0,0-.012.365q0,.731.766.73a1.4,1.4,0,0,0,.819-.259,2.381,2.381,0,0,0,.631-.654,3.312,3.312,0,0,0,.4-.86,3.061,3.061,0,0,0,.141-.89,1.535,1.535,0,0,0-.212-.825.755.755,0,0,0-.695-.341,1.174,1.174,0,0,0-.531.13,1.649,1.649,0,0,0-.483.377,2.721,2.721,0,0,0-.4.6,2.923,2.923,0,0,0-.26.784Z" transform="translate(-154.386 -126.083)" fill="#a81833"/>
    <path id="Path_10" data-name="Path 10" d="M242.08,184.62l-.754,3.959q-.095.519-.159.96t-.124.819H239.83l.118-1h-.024a2.855,2.855,0,0,1-.931.848,2.19,2.19,0,0,1-1.061.283,1.891,1.891,0,0,1-.589-.088,1.2,1.2,0,0,1-.471-.283,1.369,1.369,0,0,1-.318-.5,2.1,2.1,0,0,1-.118-.754,4.933,4.933,0,0,1,.118-1.025l.613-3.217h1.367l-.589,3.134a3.893,3.893,0,0,0-.094.79,1,1,0,0,0,.159.583.647.647,0,0,0,.572.23,1,1,0,0,0,.483-.136,1.772,1.772,0,0,0,.471-.389,2.606,2.606,0,0,0,.395-.613,3.232,3.232,0,0,0,.253-.807l.53-2.793Z" transform="translate(-170.1 -132.822)" fill="#a81833"/>
    <path id="Path_11" data-name="Path 11" d="M256.656,188.742a3.43,3.43,0,0,0,.607.259,2.394,2.394,0,0,0,.772.13,1,1,0,0,0,.648-.218.631.631,0,0,0,.235-.489.7.7,0,0,0-.165-.465,2.041,2.041,0,0,0-.589-.418,2.7,2.7,0,0,1-.813-.63,1.29,1.29,0,0,1-.318-.866,1.7,1.7,0,0,1,.171-.76,1.72,1.72,0,0,1,.483-.6,2.391,2.391,0,0,1,.736-.389,2.93,2.93,0,0,1,.931-.141,3.317,3.317,0,0,1,.8.089,2.14,2.14,0,0,1,.554.206l-.354.99a2.174,2.174,0,0,0-.442-.177,2.219,2.219,0,0,0-.63-.082,1,1,0,0,0-.63.189.587.587,0,0,0-.242.483.566.566,0,0,0,.189.418,2.342,2.342,0,0,0,.554.371,3.5,3.5,0,0,1,.831.63,1.262,1.262,0,0,1,.359.913,1.758,1.758,0,0,1-.7,1.449,2.315,2.315,0,0,1-.772.377,3.461,3.461,0,0,1-.966.13,3.367,3.367,0,0,1-.937-.124,2.265,2.265,0,0,1-.666-.289Z" transform="translate(-184.392 -132.489)" fill="#a81833"/>
    <path id="Path_12" data-name="Path 12" d="M272.512,184.224l1.084-5.739h1.379l-1.1,5.739Zm2.015-6.564a.691.691,0,0,1-.519-.206.683.683,0,0,1-.189-.524.8.8,0,0,1,.242-.607.816.816,0,0,1,.583-.23.711.711,0,0,1,.524.206.727.727,0,0,1,.206.536.806.806,0,0,1-.259.6.849.849,0,0,1-.589.224" transform="translate(-196.054 -126.687)" fill="#a81833"/>
    <path id="Path_13" data-name="Path 13" d="M281.752,190.026l.742-3.959q.106-.518.171-.96t.124-.819H284l-.118,1.037h.024a2.7,2.7,0,0,1,.931-.878,2.33,2.33,0,0,1,1.131-.289,1.491,1.491,0,0,1,1.037.383,1.535,1.535,0,0,1,.424,1.2,4.276,4.276,0,0,1-.029.465q-.029.265-.077.489l-.636,3.335h-1.367l.612-3.241c.016-.11.031-.224.047-.342a2.591,2.591,0,0,0,.024-.342,1.063,1.063,0,0,0-.153-.589.624.624,0,0,0-.565-.236,1,1,0,0,0-.489.141,1.908,1.908,0,0,0-.489.407,2.715,2.715,0,0,0-.418.654,3.686,3.686,0,0,0-.277.9l-.495,2.651Z" transform="translate(-202.702 -132.489)" fill="#a81833"/>
    <path id="Path_14" data-name="Path 14" d="M308.438,189.7a3.646,3.646,0,0,1-.96.336,5.225,5.225,0,0,1-1.066.112,2.887,2.887,0,0,1-1.043-.171,1.914,1.914,0,0,1-.731-.483,2.049,2.049,0,0,1-.436-.748,3,3,0,0,1-.147-.966,3.857,3.857,0,0,1,.23-1.3,3.794,3.794,0,0,1,.654-1.161,3.432,3.432,0,0,1,1.025-.837,2.784,2.784,0,0,1,1.343-.324,1.95,1.95,0,0,1,1.35.448,1.64,1.64,0,0,1,.224,2.092,1.927,1.927,0,0,1-.772.6,4.167,4.167,0,0,1-1.19.312,9.866,9.866,0,0,1-1.52.065,1.306,1.306,0,0,0,.018.4,1.234,1.234,0,0,0,.135.412,1.248,1.248,0,0,0,1.178.589,3.367,3.367,0,0,0,.884-.106,3.278,3.278,0,0,0,.7-.271Zm-.577-3.912a.533.533,0,0,0-.2-.442.828.828,0,0,0-.53-.159,1.316,1.316,0,0,0-.584.13,1.69,1.69,0,0,0-.471.342,2,2,0,0,0-.342.471,2.135,2.135,0,0,0-.194.518,8.1,8.1,0,0,0,.96-.029,3.65,3.65,0,0,0,.731-.135,1.088,1.088,0,0,0,.465-.265.594.594,0,0,0,.165-.43" transform="translate(-218.746 -132.489)" fill="#a81833"/>
    <path id="Path_15" data-name="Path 15" d="M322.131,188.742a3.431,3.431,0,0,0,.607.259,2.394,2.394,0,0,0,.772.13,1,1,0,0,0,.648-.218.631.631,0,0,0,.235-.489.7.7,0,0,0-.165-.465,2.042,2.042,0,0,0-.589-.418,2.7,2.7,0,0,1-.813-.63,1.29,1.29,0,0,1-.318-.866,1.7,1.7,0,0,1,.171-.76,1.72,1.72,0,0,1,.483-.6,2.391,2.391,0,0,1,.737-.389,2.93,2.93,0,0,1,.931-.141,3.317,3.317,0,0,1,.8.089,2.14,2.14,0,0,1,.554.206l-.354.99a2.172,2.172,0,0,0-.442-.177,2.218,2.218,0,0,0-.63-.082,1,1,0,0,0-.63.189.587.587,0,0,0-.242.483.566.566,0,0,0,.189.418,2.343,2.343,0,0,0,.554.371,3.5,3.5,0,0,1,.831.63,1.262,1.262,0,0,1,.359.913,1.758,1.758,0,0,1-.7,1.449,2.315,2.315,0,0,1-.772.377,3.461,3.461,0,0,1-.966.13,3.367,3.367,0,0,1-.937-.124,2.265,2.265,0,0,1-.666-.289Z" transform="translate(-231.497 -132.489)" fill="#a81833"/>
    <path id="Path_16" data-name="Path 16" d="M337.587,188.742a3.428,3.428,0,0,0,.607.259,2.394,2.394,0,0,0,.772.13,1,1,0,0,0,.648-.218.631.631,0,0,0,.235-.489.7.7,0,0,0-.165-.465,2.042,2.042,0,0,0-.59-.418,2.7,2.7,0,0,1-.813-.63,1.289,1.289,0,0,1-.318-.866,1.7,1.7,0,0,1,.171-.76,1.72,1.72,0,0,1,.483-.6,2.392,2.392,0,0,1,.736-.389,2.93,2.93,0,0,1,.931-.141,3.316,3.316,0,0,1,.8.089,2.139,2.139,0,0,1,.554.206l-.354.99a2.172,2.172,0,0,0-.442-.177,2.219,2.219,0,0,0-.63-.082,1,1,0,0,0-.63.189.587.587,0,0,0-.242.483.566.566,0,0,0,.189.418,2.341,2.341,0,0,0,.554.371,3.5,3.5,0,0,1,.831.63,1.262,1.262,0,0,1,.359.913,1.758,1.758,0,0,1-.7,1.449,2.315,2.315,0,0,1-.772.377,3.461,3.461,0,0,1-.966.13,3.367,3.367,0,0,1-.937-.124,2.265,2.265,0,0,1-.666-.289Z" transform="translate(-242.616 -132.489)" fill="#a81833"/>
    <path id="Path_17" data-name="Path 17" d="M359.51,188.742a3.431,3.431,0,0,0,.607.259,2.394,2.394,0,0,0,.772.13,1,1,0,0,0,.648-.218.631.631,0,0,0,.235-.489.7.7,0,0,0-.165-.465,2.043,2.043,0,0,0-.59-.418,2.7,2.7,0,0,1-.813-.63,1.289,1.289,0,0,1-.318-.866,1.7,1.7,0,0,1,.171-.76,1.72,1.72,0,0,1,.483-.6,2.392,2.392,0,0,1,.736-.389,2.93,2.93,0,0,1,.931-.141,3.317,3.317,0,0,1,.8.089,2.138,2.138,0,0,1,.554.206l-.353.99a2.173,2.173,0,0,0-.442-.177,2.218,2.218,0,0,0-.63-.082,1,1,0,0,0-.63.189.587.587,0,0,0-.242.483.566.566,0,0,0,.189.418,2.342,2.342,0,0,0,.554.371,3.5,3.5,0,0,1,.831.63,1.262,1.262,0,0,1,.359.913,1.758,1.758,0,0,1-.7,1.449,2.315,2.315,0,0,1-.772.377,3.462,3.462,0,0,1-.966.13,3.367,3.367,0,0,1-.937-.124,2.265,2.265,0,0,1-.666-.289Z" transform="translate(-258.388 -132.489)" fill="#a81833"/>
    <path id="Path_18" data-name="Path 18" d="M380.172,189.7a3.646,3.646,0,0,1-.96.336,5.225,5.225,0,0,1-1.066.112,2.888,2.888,0,0,1-1.043-.171,1.914,1.914,0,0,1-.731-.483,2.05,2.05,0,0,1-.436-.748,3,3,0,0,1-.147-.966,3.857,3.857,0,0,1,.23-1.3,3.791,3.791,0,0,1,.654-1.161,3.431,3.431,0,0,1,1.025-.837,2.785,2.785,0,0,1,1.343-.324,1.95,1.95,0,0,1,1.35.448,1.64,1.64,0,0,1,.224,2.092,1.927,1.927,0,0,1-.772.6,4.167,4.167,0,0,1-1.19.312,9.866,9.866,0,0,1-1.52.065,1.306,1.306,0,0,0,.018.4,1.233,1.233,0,0,0,.135.412,1.248,1.248,0,0,0,1.178.589,3.366,3.366,0,0,0,.884-.106,3.279,3.279,0,0,0,.7-.271Zm-.577-3.912a.533.533,0,0,0-.2-.442.828.828,0,0,0-.53-.159,1.316,1.316,0,0,0-.584.13,1.689,1.689,0,0,0-.471.342,2,2,0,0,0-.342.471,2.131,2.131,0,0,0-.194.518,8.1,8.1,0,0,0,.96-.029,3.65,3.65,0,0,0,.731-.135,1.088,1.088,0,0,0,.465-.265.594.594,0,0,0,.165-.43" transform="translate(-270.354 -132.489)" fill="#a81833"/>
    <path id="Path_19" data-name="Path 19" d="M394.268,183.62l1.6-8.367h1.367l-1.591,8.367Z" transform="translate(-283.649 -126.083)" fill="#a81833"/>
    <path id="Path_20" data-name="Path 20" d="M404.1,183.288l.884-4.678h-.742l.2-1.061h.742l.059-.295a4.574,4.574,0,0,1,.318-1.066,2.375,2.375,0,0,1,.637-.866,2.1,2.1,0,0,1,.713-.4,2.533,2.533,0,0,1,.8-.13,2.429,2.429,0,0,1,.518.047,1.48,1.48,0,0,1,.33.106l-.259,1.084a1.43,1.43,0,0,0-.554-.094.894.894,0,0,0-.766.395,2.255,2.255,0,0,0-.377.949l-.047.271h1.19l-.2,1.061h-1.19l-.884,4.678Z" transform="translate(-290.719 -125.751)" fill="#a81833"/>
    <path id="Path_21" data-name="Path 21" d="M421.291,188.742a3.43,3.43,0,0,0,.607.259,2.394,2.394,0,0,0,.772.13,1,1,0,0,0,.648-.218.631.631,0,0,0,.235-.489.7.7,0,0,0-.165-.465,2.043,2.043,0,0,0-.59-.418,2.7,2.7,0,0,1-.813-.63,1.289,1.289,0,0,1-.318-.866,1.7,1.7,0,0,1,.171-.76,1.72,1.72,0,0,1,.483-.6,2.391,2.391,0,0,1,.736-.389,2.93,2.93,0,0,1,.931-.141,3.317,3.317,0,0,1,.8.089,2.139,2.139,0,0,1,.554.206l-.354.99a2.172,2.172,0,0,0-.442-.177,2.218,2.218,0,0,0-.63-.082,1,1,0,0,0-.63.189.587.587,0,0,0-.242.483.566.566,0,0,0,.189.418,2.344,2.344,0,0,0,.554.371,3.5,3.5,0,0,1,.831.63,1.262,1.262,0,0,1,.359.913,1.758,1.758,0,0,1-.7,1.449,2.314,2.314,0,0,1-.772.377,3.462,3.462,0,0,1-.966.13,3.367,3.367,0,0,1-.937-.124,2.265,2.265,0,0,1-.666-.289Z" transform="translate(-302.836 -132.489)" fill="#a81833"/>
    <path id="Path_22" data-name="Path 22" d="M440.9,178.992l-.295,1.579h1.3l-.212,1.061H440.4l-.459,2.321q-.036.2-.065.412a2.969,2.969,0,0,0-.029.4.545.545,0,0,0,.118.371.489.489,0,0,0,.389.136h.247a1.031,1.031,0,0,0,.224-.024l-.13,1.072a1.7,1.7,0,0,1-.4.088,4.168,4.168,0,0,1-.495.029,1.386,1.386,0,0,1-1.037-.342,1.158,1.158,0,0,1-.33-.837,4.284,4.284,0,0,1,.03-.5,5.641,5.641,0,0,1,.1-.572l.495-2.557h-.778l.2-1.061h.777l.236-1.237Z" transform="translate(-315.315 -128.773)" fill="#a81833"/>
    <path id="Path_23" data-name="Path 23" d="M453.522,184.158a2.512,2.512,0,0,1,1.019.194,2.153,2.153,0,0,1,.736.518,2.207,2.207,0,0,1,.448.76,2.717,2.717,0,0,1,.153.907,3.964,3.964,0,0,1-.242,1.385,3.554,3.554,0,0,1-.683,1.149,3.326,3.326,0,0,1-1.054.79,3.064,3.064,0,0,1-1.343.295,2.583,2.583,0,0,1-.978-.177,2.063,2.063,0,0,1-.737-.495,2.256,2.256,0,0,1-.465-.748,2.629,2.629,0,0,1-.165-.949,4.014,4.014,0,0,1,.242-1.39,3.6,3.6,0,0,1,.678-1.155,3.262,3.262,0,0,1,1.049-.789,3.058,3.058,0,0,1,1.343-.295m-.165,1.061a1.182,1.182,0,0,0-.736.247,2.112,2.112,0,0,0-.542.619,3.23,3.23,0,0,0-.336.819,3.335,3.335,0,0,0-.118.848,1.518,1.518,0,0,0,.295.972.994.994,0,0,0,.825.371,1.117,1.117,0,0,0,.7-.241,2.206,2.206,0,0,0,.536-.613,3.25,3.25,0,0,0,.348-.825,3.331,3.331,0,0,0,.123-.878,2.011,2.011,0,0,0-.053-.454,1.276,1.276,0,0,0-.183-.424,1.039,1.039,0,0,0-.336-.318,1,1,0,0,0-.524-.123" transform="translate(-323.896 -132.489)" fill="#a81833"/>
    <path id="Path_24" data-name="Path 24" d="M471.3,190.026l.672-3.535q.117-.613.177-1.214t.118-.99h1.19q-.024.295-.053.6t-.076.619h.035a2.942,2.942,0,0,1,.748-.966,1.6,1.6,0,0,1,1.054-.377q.071,0,.147.006c.051,0,.1.01.147.018l-.271,1.343c-.039-.008-.081-.014-.124-.018s-.088-.006-.135-.006a1.289,1.289,0,0,0-.666.177,1.847,1.847,0,0,0-.53.477,2.92,2.92,0,0,0-.389.7,4.464,4.464,0,0,0-.242.86l-.436,2.31Z" transform="translate(-339.065 -132.489)" fill="#a81833"/>
    <path id="Path_25" data-name="Path 25" d="M488.16,190.026q.012-.259.041-.589t.065-.707h-.035a2.676,2.676,0,0,1-.966,1.113,2.153,2.153,0,0,1-1.084.313,1.538,1.538,0,0,1-1.237-.542,2.11,2.11,0,0,1-.46-1.414,4.383,4.383,0,0,1,.253-1.455,3.8,3.8,0,0,1,2.027-2.227,4.078,4.078,0,0,1,1.762-.359,5.763,5.763,0,0,1,.937.077,5.623,5.623,0,0,1,.8.183l-.589,2.993q-.059.318-.106.672t-.082.7q-.035.348-.047.666t0,.577Zm.566-4.749q-.106-.024-.242-.041a2.554,2.554,0,0,0-.324-.018,1.712,1.712,0,0,0-.89.241,2.594,2.594,0,0,0-.713.63,3.02,3.02,0,0,0-.477.878,2.967,2.967,0,0,0-.171.984,1.508,1.508,0,0,0,.189.772.676.676,0,0,0,.636.324,1,1,0,0,0,.495-.147,1.726,1.726,0,0,0,.489-.436,3.166,3.166,0,0,0,.412-.707,4.589,4.589,0,0,0,.289-.972Z" transform="translate(-348.553 -132.489)" fill="#a81833"/>
    <path id="Path_26" data-name="Path 26" d="M505.56,191.052a2.383,2.383,0,0,0,.683.247,3.848,3.848,0,0,0,.837.094,2.162,2.162,0,0,0,.624-.089,1.508,1.508,0,0,0,.536-.288,1.716,1.716,0,0,0,.418-.542,3.366,3.366,0,0,0,.283-.837l.141-.648h-.024a2.1,2.1,0,0,1-1.8,1.013,1.678,1.678,0,0,1-1.326-.607,2,2,0,0,1-.354-.642,2.406,2.406,0,0,1-.124-.778,4,4,0,0,1,.253-1.4,3.754,3.754,0,0,1,.737-1.22,3.623,3.623,0,0,1,2.769-1.2,5.041,5.041,0,0,1,1.078.112,4.8,4.8,0,0,1,.913.289l-.872,4.737a8.025,8.025,0,0,1-.43,1.5,2.724,2.724,0,0,1-.748,1.061,2.256,2.256,0,0,1-.483.312,2.92,2.92,0,0,1-.536.194,3.939,3.939,0,0,1-.56.1,5.423,5.423,0,0,1-.554.029,4.749,4.749,0,0,1-1.031-.106,2.446,2.446,0,0,1-.76-.283Zm4.148-5.68a1.12,1.12,0,0,0-.312-.1,2.255,2.255,0,0,0-.442-.041,1.588,1.588,0,0,0-.825.224,2.233,2.233,0,0,0-.648.583,2.94,2.94,0,0,0-.578,1.726,2,2,0,0,0,.047.436,1.085,1.085,0,0,0,.153.371.817.817,0,0,0,.283.259.872.872,0,0,0,.436.1,1.01,1.01,0,0,0,.507-.141,1.713,1.713,0,0,0,.46-.4,2.722,2.722,0,0,0,.371-.589,2.894,2.894,0,0,0,.23-.725Z" transform="translate(-363.479 -132.489)" fill="#a81833"/>
    <path id="Path_27" data-name="Path 27" d="M532,189.7a3.647,3.647,0,0,1-.96.336,5.224,5.224,0,0,1-1.066.112,2.887,2.887,0,0,1-1.043-.171,1.914,1.914,0,0,1-.731-.483,2.048,2.048,0,0,1-.436-.748,3,3,0,0,1-.147-.966,3.855,3.855,0,0,1,.23-1.3,3.791,3.791,0,0,1,.654-1.161,3.433,3.433,0,0,1,1.025-.837,2.785,2.785,0,0,1,1.343-.324,1.95,1.95,0,0,1,1.349.448,1.64,1.64,0,0,1,.224,2.092,1.926,1.926,0,0,1-.772.6,4.166,4.166,0,0,1-1.19.312,9.865,9.865,0,0,1-1.52.065,1.307,1.307,0,0,0,.018.4,1.23,1.23,0,0,0,.136.412,1.248,1.248,0,0,0,1.178.589,3.367,3.367,0,0,0,.884-.106,3.278,3.278,0,0,0,.7-.271Zm-.577-3.912a.533.533,0,0,0-.2-.442.828.828,0,0,0-.53-.159,1.316,1.316,0,0,0-.584.13,1.688,1.688,0,0,0-.471.342,2,2,0,0,0-.342.471,2.14,2.14,0,0,0-.194.518,8.1,8.1,0,0,0,.96-.029,3.649,3.649,0,0,0,.731-.135,1.087,1.087,0,0,0,.466-.265.594.594,0,0,0,.165-.43" transform="translate(-379.585 -132.489)" fill="#a81833"/>
    <path id="Path_28" data-name="Path 28" d="M7.127,3.579A3.564,3.564,0,1,1,3.563,0,3.571,3.571,0,0,1,7.127,3.579" fill="#cececd"/>
    <path id="Path_29" data-name="Path 29" d="M46.589,3.579A3.564,3.564,0,1,1,43.025,0a3.571,3.571,0,0,1,3.564,3.579" transform="translate(-28.39 0)" fill="#cececd"/>
    <path id="Path_30" data-name="Path 30" d="M7.127,41.218a3.564,3.564,0,1,1-3.564-3.579,3.571,3.571,0,0,1,3.564,3.579" transform="translate(0 -27.079)" fill="#cececd"/>
    <path id="Path_31" data-name="Path 31" d="M33.036,64.758a19.172,19.172,0,0,0,8.453,2.388c2.968,0,4.194-1.032,4.194-2.646s-.968-2.388-4.646-3.614C34.521,58.693,32,55.143,32.068,51.4c0-5.872,5.033-10.325,12.841-10.325a21.17,21.17,0,0,1,8.905,1.807l-1.742,6.776a15.488,15.488,0,0,0-6.84-1.807c-2.388,0-3.743.968-3.743,2.581,0,1.484,1.226,2.259,5.1,3.614,6,2.065,8.518,5.1,8.583,9.744,0,5.872-4.646,10.2-13.68,10.2a22.341,22.341,0,0,1-10.2-2.194Z" transform="translate(-22.514 -29.551)" fill="#a81833"/>
    <path id="Path_32" data-name="Path 32" d="M140.468,60.693c.322,4.065,4.323,6,8.9,6a27.8,27.8,0,0,0,8.712-1.291l1.291,6.646a31.147,31.147,0,0,1-11.422,1.936c-10.712,0-16.842-6.195-16.842-16.068,0-8,4.969-16.842,15.939-16.842,10.2,0,14.068,7.937,14.068,15.745a23.294,23.294,0,0,1-.323,3.872Zm11.551-6.711c0-2.388-1.033-6.389-5.549-6.389-4.13,0-5.808,3.743-6.066,6.389Z" transform="translate(-94.325 -29.551)" fill="#a81833"/>
    <path id="Path_33" data-name="Path 33" d="M258.329,51.852c0-3.936-.129-7.292-.258-10.066h8.518l.452,4.323h.194a11.552,11.552,0,0,1,9.744-5.033c6.453,0,11.293,4.259,11.293,13.551V73.341h-9.809V55.853c0-4.065-1.42-6.84-4.969-6.84a5.236,5.236,0,0,0-4.969,3.678,6.741,6.741,0,0,0-.387,2.452v18.2h-9.809Z" transform="translate(-185.665 -29.551)" fill="#a81833"/>
    <path id="Path_34" data-name="Path 34" d="M396.081,11.407v9.034h7.034v7.227h-7.034V39.09c0,3.807.9,5.549,3.872,5.549a16.013,16.013,0,0,0,2.9-.258l.065,7.421a19.243,19.243,0,0,1-6.389.839,10.2,10.2,0,0,1-7.356-2.71c-1.807-1.871-2.711-4.9-2.711-9.357V27.668h-4.194V20.441h4.194V13.6Z" transform="translate(-275.019 -8.207)" fill="#a81833"/>
    <path id="Path_35" data-name="Path 35" d="M476.137,52.174c0-4.646-.129-7.679-.258-10.389h8.454l.323,5.807h.258a9.269,9.269,0,0,1,8.518-6.518,10.107,10.107,0,0,1,2.065.129v9.228a14.058,14.058,0,0,0-2.646-.258c-3.614,0-6.066,1.936-6.711,4.969a11.567,11.567,0,0,0-.193,2.194v16h-9.809Z" transform="translate(-342.363 -29.551)" fill="#a81833"/>
    <path id="Path_36" data-name="Path 36" d="M566.59,43.606,571.3,59.093c.516,1.871,1.162,4.194,1.549,5.872h.194c.451-1.678.968-4.065,1.42-5.872l3.872-15.487h10.518L581.5,64.385C576.98,76.9,573.947,81.936,570.4,85.1a18.086,18.086,0,0,1-9.486,4.324L558.847,81.1a12.364,12.364,0,0,0,4.259-1.678,11.27,11.27,0,0,0,4.065-3.936,2.558,2.558,0,0,0,.516-1.42,3.562,3.562,0,0,0-.452-1.613L555.685,43.606Z" transform="translate(-399.778 -31.372)" fill="#a81833"/>
  </g>
</svg>
